<svg xmlns="http://www.w3.org/2000/svg" width="129" height="111" fill="none"><path fill="#FEE400" fill-rule="evenodd" d="M89.507 0C110.717 0 129 16.03 129 37.184 129 69.857 122.27 111 89.507 111 44.148 111 0 82.418 0 37.183 0-.58 51.64 0 89.507 0Z" clip-rule="evenodd"/><path fill="#fff" d="M74.663 61.552c1.312 0 2.24.16 2.784.48.576.288.96.752 1.152 1.392.192.608.288 1.424.288 2.448 0 .992-.112 1.792-.336 2.4-.192.608-.528 1.024-1.008 1.248-.704.384-1.696.576-2.976.576H55.799c-1.152 0-2.144-.432-2.976-1.296-.832-.864-1.248-1.872-1.248-3.024 0-1.728.592-3.312 1.776-4.752a17.028 17.028 0 0 1 4.368-3.744 214.925 214.925 0 0 1 5.088-3.072c1.696-1.024 3.136-2.176 4.32-3.456 1.216-1.28 1.824-2.64 1.824-4.08 0-.288-.112-.688-.336-1.2-.224-.544-.48-.976-.768-1.296-.256-.352-.672-.672-1.248-.96-.576-.288-1.376-.432-2.4-.432s-1.92.384-2.688 1.152c-.736.736-1.152 1.472-1.248 2.208l-.192 1.104v.288c0 .704-.032 1.232-.096 1.584-.032.352-.176.752-.432 1.2-.48.768-1.728 1.152-3.744 1.152-2.24 0-3.568-.608-3.984-1.824-.16-.512-.24-1.328-.24-2.448 0-3.328 1.184-6.304 3.552-8.928 2.4-2.656 5.52-3.984 9.36-3.984 3.872 0 7.008 1.344 9.408 4.032 2.4 2.656 3.6 5.696 3.6 9.12 0 1.824-.4 3.552-1.2 5.184-.8 1.632-1.76 2.944-2.88 3.936-2.368 2.112-4.48 3.536-6.336 4.272l-1.2.48v.24h8.784Z"/></svg>