<svg xmlns="http://www.w3.org/2000/svg" width="102" height="109" fill="none"><path fill="#9CC624" fill-rule="evenodd" d="M70.724 0C95.922 0 102 31.203 102 56.371 102 80.272 94.653 109 70.724 109 36.28 109 0 90.772 0 56.371 0 21.078 35.388 0 70.724 0Z" clip-rule="evenodd"/><path fill="#fff" d="M54.894 36.288c3.936 0 7.04 1.12 9.312 3.36 2.272 2.24 3.408 4.768 3.408 7.584 0 2.784-1.248 4.8-3.744 6.048v.336c.32.16.784.512 1.392 1.056.64.512 1.152 1.024 1.536 1.536 1.056 1.344 1.584 2.88 1.584 4.608 0 3.424-1.28 6.256-3.84 8.496-2.56 2.208-5.776 3.312-9.648 3.312-3.84 0-7.04-1.12-9.6-3.36-.96-.864-1.808-2-2.544-3.408-.256-.512-.432-.928-.528-1.248l-.096-.48c-.352-1.056-.528-1.92-.528-2.592 0-1.856 1.568-2.784 4.704-2.784 1.28 0 2.128.16 2.544.48.544.416 1.024 1.248 1.44 2.496.32 1.024 1.2 1.792 2.64 2.304a6.67 6.67 0 0 0 2.016.288c1.696 0 2.944-.336 3.744-1.008.8-.704 1.2-1.488 1.2-2.352 0-.864-.4-1.616-1.2-2.256-.768-.672-1.696-1.008-2.784-1.008-1.056 0-1.776-.032-2.16-.096-.384-.064-.8-.224-1.248-.48-.864-.416-1.296-1.648-1.296-3.696 0-2.24.592-3.568 1.776-3.984.544-.16 1.376-.24 2.496-.24 2.432 0 3.648-.624 3.648-1.872 0-.672-.32-1.312-.96-1.92-.64-.608-1.536-.912-2.688-.912-1.12 0-2.016.192-2.688.576-.672.384-1.088.768-1.248 1.152l-.288.576c-.736 1.6-1.792 2.4-3.168 2.4-.8 0-1.68-.288-2.64-.864-1.6-.928-2.4-2-2.4-3.216 0-.512.368-1.6 1.104-3.264.128-.288.48-.784 1.056-1.488a10.16 10.16 0 0 1 1.968-1.92c.768-.544 1.824-1.04 3.168-1.488 1.376-.448 2.896-.672 4.56-.672Z"/></svg>