<svg xmlns="http://www.w3.org/2000/svg" width="127" height="119" fill="none"><path fill="#03CB8F" fill-rule="evenodd" d="M62.3.343c20.26 1.34 38.547 11.754 50.627 28.053 11.53 15.56 18.923 36.861 10.346 54.22-7.614 15.41-29.93 10.929-45.809 17.549-13.842 5.772-24.955 23.299-38.897 17.771-14.163-5.615-11.69-25.67-17.002-39.933C14.22 58.278-7.273 39.736 2.505 21.094 12.808 1.454 40.15-1.122 62.3.343Z" clip-rule="evenodd"/><path fill="#fff" d="m58.761 41.72 7.296.048h4.512c.768 0 1.328.032 1.68.096.352.032.768.176 1.248.432.864.448 1.296 1.728 1.296 3.84 0 1.92-.4 3.088-1.2 3.504-.448.256-.848.416-1.2.48-.32.032-.832.048-1.536.048h-8.4c-.064.384-.224 1.6-.48 3.648.352-.064.912-.096 1.68-.096 3.04 0 5.776 1.152 8.208 3.456 2.432 2.272 3.648 5.072 3.648 8.4 0 3.296-1.152 6.144-3.456 8.544-2.304 2.368-5.168 3.552-8.592 3.552-2.976 0-5.664-.752-8.064-2.256-.544-.352-.944-.656-1.2-.912l-.384-.336c-1.216-1.056-1.824-2.016-1.824-2.88 0-.864.592-1.904 1.776-3.12.96-1.056 1.888-1.584 2.784-1.584.896 0 1.968.512 3.216 1.536.576.672 1.568 1.008 2.976 1.008 1.44 0 2.496-.304 3.168-.912.704-.608 1.056-1.44 1.056-2.496 0-1.088-.384-1.936-1.152-2.544a3.763 3.763 0 0 0-2.544-.96c-.96 0-1.728.288-2.304.864-.864.736-1.744 1.104-2.64 1.104-.864 0-1.872-.304-3.024-.912-1.12-.608-1.856-1.088-2.208-1.44-.352-.384-.528-.784-.528-1.2 0-.416.32-2.992.96-7.728.64-4.736.976-7.2 1.008-7.392.032-.192.144-.528.336-1.008.192-.48.416-.912.672-1.296.288-.384.704-.72 1.248-1.008.576-.32 1.232-.48 1.968-.48Z"/></svg>