<svg xmlns="http://www.w3.org/2000/svg" width="120" height="108" fill="none"><path fill="#FE4848" fill-rule="evenodd" d="M74.542 0C106.404 0 120 35.923 120 67.815 120 91.522 98.226 108 74.542 108 41.478 108 0 100.911 0 67.815 0 28.44 35.204 0 74.542 0Z" clip-rule="evenodd"/><path fill="#fff" d="M57.69 38.016c.833-.832 1.729-1.248 2.689-1.248.992 0 1.76.08 2.304.24.544.16.96.352 1.248.576.288.192.512.528.672 1.008.16.544.24 1.392.24 2.544v26.736c0 .736-.032 1.296-.096 1.68-.032.352-.176.768-.432 1.248-.448.864-1.696 1.296-3.744 1.296-1.984 0-3.216-.416-3.696-1.248-.256-.48-.416-.912-.48-1.296a24.806 24.806 0 0 1-.048-1.776V50.64l-.624.576c-1.312.992-2.432 1.488-3.36 1.488-.928 0-1.904-.56-2.928-1.68-.992-1.12-1.488-2.112-1.488-2.976 0-.864.576-1.808 1.728-2.832l7.872-7.104.144-.096Z"/></svg>