<svg xmlns="http://www.w3.org/2000/svg" width="145" height="131" fill="none"><path fill="#0E9AFF" fill-rule="evenodd" d="M143.917 53.755c3.318 24.166-.424 51.151-19.128 66.893-18.06 15.2-44.009 10.481-67.163 5.733-21.15-4.337-44.086-11.075-53.442-30.465-8.872-18.386-2.93-42.32 11.19-57.099 11-11.514 30.704 3.923 45.438-2.173C80.185 28.628 87.737-3.851 108.278.378c22.1 4.55 32.581 31.1 35.639 53.377Z" clip-rule="evenodd"/><path fill="#fff" d="M80.777 59.968c.256-.448.688-.752 1.296-.912.64-.192 1.456-.288 2.448-.288 1.024 0 1.84.112 2.448.336.608.192 1.04.528 1.296 1.008.256.448.4.864.432 1.248.064.384.096.944.096 1.68v26.688c0 1.248-.16 2.176-.48 2.784-.288.576-.752.96-1.392 1.152-.608.192-1.376.288-2.304.288-.928 0-1.664-.08-2.208-.24-.544-.16-.96-.352-1.248-.576-.288-.224-.496-.544-.624-.96-.192-.544-.288-1.376-.288-2.496v-5.856H67.24c-2.24 0-3.568-.608-3.984-1.824-.16-.512-.24-1.2-.24-2.064 0-.864.048-1.504.144-1.92l3.984-16.08a28.27 28.27 0 0 1 .48-1.68c.16-.384.448-.752.864-1.104.448-.352 1.008-.528 1.68-.528.672 0 1.408.112 2.208.336 2.24.608 3.36 1.632 3.36 3.072 0 .512-.112 1.184-.336 2.016a.368.368 0 0 0-.048.144l-2.928 11.712h7.824V62.8c0-.736.016-1.28.048-1.632.064-.352.224-.752.48-1.2Z"/></svg>