<svg xmlns="http://www.w3.org/2000/svg" width="142" height="125" fill="none"><path fill="#C61FA1" fill-rule="evenodd" d="M94.172.978C120.45 4.134 126.704 32.99 134.265 56.7c6.691 20.982 14.851 45.585-3.404 59.32-20.255 15.239-48.393 9.109-70.469-3.738C30.181 94.701-8.172 72.741 1.534 40.758 11.78 6.998 56.904-3.499 94.172.978Z" clip-rule="evenodd"/><path fill="#fff" d="M87.75 68.248c0 3.232-1.168 5.936-3.504 8.112-2.304 2.176-5.104 3.264-8.4 3.264-4.16 0-7.296-1.328-9.408-3.984-2.112-2.688-3.168-6.144-3.168-10.368 0-6.112 1.728-11.216 5.184-15.312 3.488-4.096 8.24-6.144 14.256-6.144 1.216 0 2.096.16 2.64.48.576.288.96.736 1.152 1.344.192.608.288 1.376.288 2.304 0 .928-.08 1.664-.24 2.208-.16.544-.352.96-.576 1.248-.224.288-.544.496-.96.624-.544.192-1.472.288-2.784.288-1.312 0-2.592.224-3.84.672-1.216.448-2.176.992-2.88 1.632-1.408 1.312-2.272 2.496-2.592 3.552l-.24.672c1.184-.544 2.368-.816 3.552-.816 3.168 0 5.872 1.056 8.112 3.168 2.272 2.08 3.408 4.432 3.408 7.056Zm-12.096 3.504c2.464 0 3.696-1.072 3.696-3.216 0-.736-.288-1.424-.864-2.064-.544-.64-1.44-.96-2.688-.96-1.216 0-2.16.304-2.832.912-.64.576-.96 1.168-.96 1.776 0 .608.032 1.072.096 1.392.096.32.256.672.48 1.056.448.736 1.472 1.104 3.072 1.104Z"/></svg>